<svg xmlns="http://www.w3.org/2000/svg" version="1.1" xmlns:xlink="http://www.w3.org/1999/xlink" width="512" height="512" x="0" y="0" viewBox="0 0 480 480" style="enable-background:new 0 0 512 512" xml:space="preserve" class=""><g><path d="M426.512 278.328a8.006 8.006 0 0 0 5.488-7.594v-61.468a7.998 7.998 0 0 0-5.488-7.594l-36.551-12.113-8.297-19.973L397.137 137a8.018 8.018 0 0 0-.703-8.07 192.368 192.368 0 0 0-45.371-45.371 8.037 8.037 0 0 0-8.07-.704l-32.587 15.48-19.98-8.296-12.106-36.55A7.974 7.974 0 0 0 270.734 48h-61.468a7.991 7.991 0 0 0-7.594 5.488L189.566 90.04l-19.98 8.297L137 82.848c-2.625-1.223-5.703-.977-8.07.71a192.183 192.183 0 0 0-45.371 45.38 7.984 7.984 0 0 0-.704 8.062l15.473 32.586-8.297 19.973-36.55 12.113A8.009 8.009 0 0 0 48 209.266v61.468a7.998 7.998 0 0 0 5.488 7.594l36.168 11.977a158.31 158.31 0 0 0 8.504 20.48L82.855 343a8.002 8.002 0 0 0 .704 8.063 192.328 192.328 0 0 0 45.37 45.378 8.07 8.07 0 0 0 8.071.704l32.215-15.297a157.67 157.67 0 0 0 20.48 8.504l11.977 36.168a7.994 7.994 0 0 0 7.594 5.48h61.468a7.991 7.991 0 0 0 7.594-5.488l11.977-36.168a157.67 157.67 0 0 0 20.48-8.504L343 397.137a8.035 8.035 0 0 0 8.07-.703c17.594-12.504 32.852-27.778 45.371-45.38a7.984 7.984 0 0 0 .704-8.062l-15.305-32.215a157.53 157.53 0 0 0 8.512-20.48zm-45.047-1.93a8.01 8.01 0 0 0-5.137 5.258 141.1 141.1 0 0 1-10.473 25.215 8.007 8.007 0 0 0-.168 7.184l14.961 31.496a176.105 176.105 0 0 1-35.09 35.09l-31.496-14.954a7.973 7.973 0 0 0-7.19.168 142.148 142.148 0 0 1-25.216 10.48 7.989 7.989 0 0 0-5.265 5.138L264.96 416h-49.922l-11.437-34.535a7.98 7.98 0 0 0-5.266-5.137 141.017 141.017 0 0 1-25.207-10.48 8.04 8.04 0 0 0-7.2-.168l-31.495 14.953a176.105 176.105 0 0 1-35.09-35.09l14.96-31.496a8 8 0 0 0-.167-7.192 141.385 141.385 0 0 1-10.465-25.207 7.978 7.978 0 0 0-5.137-5.257L64 264.953v-49.906l34.535-11.445a8.018 8.018 0 0 0 4.871-4.524l11.067-26.637a7.96 7.96 0 0 0-.16-6.496L99.352 134.45a176.35 176.35 0 0 1 35.09-35.097l31.495 14.96a7.993 7.993 0 0 0 6.497.168l26.644-11.066a8.009 8.009 0 0 0 4.531-4.871L215.04 64h49.922l11.43 34.535a8.009 8.009 0 0 0 4.53 4.871l26.645 11.067c2.09.863 4.45.816 6.497-.168l31.496-14.953a176.311 176.311 0 0 1 35.09 35.09l-14.961 31.496a7.994 7.994 0 0 0-.168 6.496l11.054 26.636a7.981 7.981 0 0 0 4.875 4.524L416 215.047v49.906zm0 0" fill="#007dff" opacity="1" data-original="#000000" class=""></path><path d="M240 112c-70.574 0-128 57.426-128 128s57.426 128 128 128 128-57.426 128-128-57.426-128-128-128zm0 240c-61.762 0-112-50.238-112-112s50.238-112 112-112 112 50.238 112 112-50.238 112-112 112zm0 0" fill="#007dff" opacity="1" data-original="#000000" class=""></path><path d="M296.602 176.602c-2.122 0-4.16.84-5.657 2.343L216 253.887l-30.055-30.055a7.99 7.99 0 0 0-11.312 0l-28.29 28.281a7.996 7.996 0 0 0-2.343 5.664c0 2.125.84 4.16 2.344 5.657l62.222 62.222A7.982 7.982 0 0 0 216 327.81a8.228 8.228 0 0 0 1.777.191 7.99 7.99 0 0 0 5.657-2.344l107.109-107.113a7.99 7.99 0 0 0 0-11.313l-28.285-28.285a8.017 8.017 0 0 0-5.656-2.343zm-80.372 133.62h-.46l-52.458-52.452 16.977-16.97 30.055 30.055a7.99 7.99 0 0 0 11.312 0l74.946-74.945 16.972 16.977zM232 0h16v32h-16zM232 448h16v32h-16zM448 232h32v16h-32zM0 232h32v16H0zM381.43 87.285l22.629-22.625 11.312 11.317-22.629 22.625zM64.621 404.063l22.633-22.622 11.308 11.313-22.628 22.625zM381.418 392.707l11.309-11.316 22.632 22.625-11.312 11.312zM64.633 75.945l11.312-11.312 22.633 22.62L87.266 98.57zM0 0h16v16H0zM0 32h16v16H0zM32 0h16v16H32zM464 464h16v16h-16zM464 432h16v16h-16zM432 464h16v16h-16zm0 0" fill="#007dff" opacity="1" data-original="#000000" class=""></path></g></svg>