<?xml version="1.0" standalone="no"?>
<!DOCTYPE svg PUBLIC "-//W3C//DTD SVG 20010904//EN"
 "http://www.w3.org/TR/2001/REC-SVG-20010904/DTD/svg10.dtd">
<svg version="1.0" xmlns="http://www.w3.org/2000/svg"
 width="89.000000pt" height="90.000000pt" viewBox="0 0 89.000000 90.000000"
 preserveAspectRatio="xMidYMid meet">

<g transform="translate(0.000000,90.000000) scale(0.100000,-0.100000)"
fill="#000000" stroke="none">
<path d="M0 884 c0 -8 5 -12 10 -9 6 3 10 10 10 16 0 5 -4 9 -10 9 -5 0 -10
-7 -10 -16z"/>
<path d="M60 890 c0 -5 5 -10 11 -10 5 0 7 5 4 10 -3 6 -8 10 -11 10 -2 0 -4
-4 -4 -10z"/>
<path d="M430 875 c0 -14 5 -25 10 -25 6 0 10 11 10 25 0 14 -4 25 -10 25 -5
0 -10 -11 -10 -25z"/>
<path d="M0 830 c0 -5 5 -10 11 -10 5 0 7 5 4 10 -3 6 -8 10 -11 10 -2 0 -4
-4 -4 -10z"/>
<path d="M372 780 c-6 -11 -12 -27 -12 -35 0 -9 -11 -21 -25 -27 -20 -9 -31
-8 -60 8 l-35 19 -45 -46 -46 -45 17 -33 c23 -46 10 -80 -36 -95 l-35 -11 0
-65 0 -65 35 -11 c46 -15 59 -49 37 -94 l-16 -32 44 -46 44 -47 34 19 c47 24
74 14 93 -35 l16 -39 64 0 c64 0 65 0 71 31 3 17 17 38 30 46 22 15 27 15 59
-1 34 -16 36 -16 68 9 45 34 61 67 47 93 -15 28 -14 67 2 80 6 5 23 13 37 17
34 10 40 22 40 75 0 55 -8 69 -46 79 -41 11 -57 46 -37 84 19 37 8 64 -40 101
-34 26 -35 26 -70 10 -33 -16 -38 -16 -60 -1 -13 8 -27 29 -30 46 -6 31 -7 31
-69 31 -52 0 -65 -3 -76 -20z m134 -29 c21 -52 57 -68 103 -45 l33 17 35 -35
c34 -34 35 -37 23 -70 -19 -53 -7 -83 40 -102 l41 -16 -3 -51 c-3 -49 -5 -52
-37 -63 -44 -14 -59 -54 -41 -104 12 -33 11 -36 -23 -70 l-35 -35 -33 17 c-46
23 -82 7 -103 -45 -15 -37 -18 -39 -60 -39 -47 0 -61 10 -71 51 -9 36 -58 53
-97 33 -33 -17 -44 -12 -84 35 -20 24 -21 27 -6 58 20 43 5 79 -43 99 -33 14
-35 17 -35 64 0 47 2 50 35 64 49 21 63 56 42 101 l-17 35 34 38 34 37 35 -17
c45 -22 93 -7 102 31 10 41 24 51 71 51 42 0 45 -2 60 -39z"/>
<path d="M357 665 c-46 -16 -80 -45 -116 -100 -22 -34 -26 -51 -26 -115 0 -67
3 -80 30 -120 47 -69 100 -101 178 -107 58 -5 73 -2 121 21 146 71 176 254 62
368 -65 65 -159 86 -249 53z m144 -7 c85 -25 159 -122 159 -208 0 -91 -79
-188 -170 -210 -130 -31 -260 74 -260 210 0 95 54 171 146 204 49 18 76 19
125 4z"/>
<path d="M473 488 l-73 -72 -35 34 -36 35 -31 -34 -30 -34 66 -66 66 -66 107
107 107 107 -29 31 c-16 16 -31 30 -34 30 -4 0 -39 -32 -78 -72z m101 29 c9
-13 -5 -32 -74 -105 -47 -49 -92 -90 -100 -91 -24 -2 -104 84 -97 103 11 29
36 30 58 2 11 -14 26 -26 32 -26 7 0 44 32 82 70 38 39 74 69 79 67 5 -2 14
-11 20 -20z"/>
<path d="M130 763 c0 -13 29 -38 35 -31 3 3 -4 13 -15 23 -11 10 -20 13 -20 8z"/>
<path d="M730 755 c-7 -9 -10 -18 -7 -22 8 -7 37 15 37 28 0 14 -16 11 -30 -6z"/>
<path d="M0 450 c0 -5 11 -10 25 -10 14 0 25 5 25 10 0 6 -11 10 -25 10 -14 0
-25 -4 -25 -10z"/>
<path d="M840 450 c0 -5 11 -10 25 -10 14 0 25 5 25 10 0 6 -11 10 -25 10 -14
0 -25 -4 -25 -10z"/>
<path d="M136 154 c-10 -25 -1 -27 19 -4 15 17 16 20 3 20 -9 0 -19 -7 -22
-16z"/>
<path d="M735 150 c10 -11 20 -18 23 -15 7 6 -18 35 -31 35 -5 0 -2 -9 8 -20z"/>
<path d="M870 69 c0 -5 5 -7 10 -4 6 3 10 8 10 11 0 2 -4 4 -10 4 -5 0 -10 -5
-10 -11z"/>
<path d="M437 53 c-11 -10 -8 -53 3 -53 6 0 10 13 10 30 0 31 -2 35 -13 23z"/>
<path d="M870 16 c0 -9 5 -16 10 -16 6 0 10 4 10 9 0 6 -4 13 -10 16 -5 3 -10
-1 -10 -9z"/>
<path d="M810 10 c0 -5 5 -10 10 -10 6 0 10 5 10 10 0 6 -4 10 -10 10 -5 0
-10 -4 -10 -10z"/>
</g>
</svg>
